<?xml version="1.0" encoding="iso-8859-1"?>
<!-- Uploaded to: SVG Repo, www.svgrepo.com, Generator: SVG Repo Mixer Tools -->
<svg height="800px" width="800px" version="1.1" id="Layer_1" xmlns="http://www.w3.org/2000/svg" xmlns:xlink="http://www.w3.org/1999/xlink" 
	 viewBox="0 0 512 512" xml:space="preserve">
<circle style="fill:#4AB8A1;" cx="256" cy="256" r="256"/>
<path style="fill:#43A691;" d="M454.9,393.892c-1.14-3.572-2.492-6.984-4.06-10.24c-1.148-3.588-2.512-7.028-4.088-10.3
	c-1.14-3.564-2.492-6.976-4.06-10.228c-1.364-4.272-3.076-8.308-5.04-12.132c-0.816-2.144-1.7-4.236-2.676-6.252
	c-1.144-3.584-2.504-7.016-4.08-10.276c-1.14-3.56-2.492-6.976-4.06-10.224c-1.148-3.596-2.512-7.044-4.096-10.32
	c-1.14-3.564-2.492-6.976-4.056-10.224c-1.148-3.588-2.508-7.032-4.084-10.3c-1.14-3.556-2.484-6.96-4.048-10.208
	c-1.148-3.588-2.512-7.028-4.084-10.3c-1.368-4.264-3.072-8.296-5.04-12.124c-0.812-2.14-1.704-4.232-2.68-6.252
	c-1.14-3.568-2.492-6.984-4.064-10.24c-1.148-3.588-2.508-7.024-4.084-10.296c-1.14-3.564-2.5-6.984-4.064-10.236
	c-1.14-3.58-2.5-7.008-4.076-10.272c-1.144-3.58-2.5-7.004-4.076-10.268c-1.14-3.568-2.5-6.988-4.064-10.24
	c-1.148-3.596-2.512-7.04-4.092-10.316c-1.364-4.256-3.064-8.272-5.024-12.084c-0.812-2.136-1.7-4.216-2.672-6.232
	c-1.148-3.592-2.512-7.032-4.092-10.308c-1.136-3.56-2.492-6.968-4.056-10.216c-1.148-3.592-2.512-7.032-4.084-10.308
	c-1.868-5.816-4.332-11.2-7.276-16.192C321.564,72.832,262.704,57,240,57c0,0.384,0,1.14,0,2.048c0,0.596,0,1.276,0,2.048
	c0,4.284,0,10.9,0,16.532c0,0.7,0,1.388,0,2.048c0,0.712,0,1.396,0,2.048c0,3.652,0,6.22,0,6.22c-28,3.436-59.928,58.456-84,68.772
	c0,0.704,0,1.36,0,2.048s0,1.38,0,2.048c0,11.712,0,20.676,0,26.848c0,0.168,0,0.268,0,0.332l28,67.396
	c-4.544,8.336-7.488,18.868-7.488,31.564c0.356,4.648,1.144,9.124,2.272,13.06c0.84,3.46,1.968,6.724,3.352,9.632
	c0.328,1.008,0.752,1.976,1.124,2.94c0.528,1.732,1.108,3.44,1.772,5.052c0.928,2.82,2.052,5.472,3.34,7.948
	c0.94,2.888,2.084,5.592,3.396,8.124c0.192,0.596,0.408,1.18,0.616,1.764c-2.7,2.148-4.388,5.288-4.388,9.516v2.048v2.048V368h-8
	c-8.836,0-16,7.164-16,16v2.048v2.048V440v2.048v2.048c0,3.68,1.58,7.008,4,9.688l20.06,49.032C209.704,508.756,232.468,512,256,512
	c83.952,0,158.476-40.416,205.16-102.856c-0.672-1.692-1.396-3.344-2.172-4.96C457.84,400.592,456.48,397.16,454.9,393.892z"/>
<path style="fill:#CC584C;" d="M328,368v-23c0-8.8-7.2-13-16-13H204c-8.8,0-16,4.2-16,13v23H328z"/>
<path style="fill:#BF5347;" d="M312,332h-16c8.8,0,16,4.2,16,13v23h16v-23C328,336.2,320.8,332,312,332z"/>
<path style="fill:#E6E6E6;" d="M224.772,180.788c-27.512,0-37.828,20.632-44.704,20.632c-6.88,0-13.752-6.876-24.072-13.752
	c0-6.876,0-17.192,0-30.948c24.072-10.316,56-65.332,84-68.772c0,0,0-27.508,0-30.948c28,0,111.016,24.072,111.016,96.28
	c0,72.212-47.648,85.964-13.26,137.544c-10.312,30.948-47.896,51.584-78.844,51.584c-37.824,0-78.96-10.32-82.4-55.016
	C176.512,218.612,262.592,225.492,224.772,180.788z"/>
<path style="fill:#CCCCCC;" d="M240,57c0,2.396,0,12.312,0,20.632c40,0,90.384,30.948,90.384,72.212
	c0,65.332-57.96,92.84-19.132,174.844c12.188-8.732,22.236-20.304,26.752-33.86c-34.388-51.58,12.896-65.332,12.896-137.544
	C350.9,81.072,268,57,240,57z"/>
<path style="fill:#B3B3B3;" d="M240,57c0,2.396,0,12.312,0,20.632c40,0,90.384,30.948,90.384,72.212
	c0,65.332-57.96,92.84-19.132,174.844c12.188-8.732,22.236-20.304,26.752-33.86c-34.388-51.58,12.896-65.332,12.896-137.544
	C350.9,81.072,268,57,240,57z"/>
<path style="fill:#263740;" d="M356,440c0,8.836-7.164,16-16,16H180c-8.836,0-16-7.164-16-16v-56c0-8.836,7.164-16,16-16h160
	c8.836,0,16,7.164,16,16V440z"/>
<path style="fill:#1E2C33;" d="M340,368h-16c8.836,0,16,7.164,16,16v56c0,8.836-7.164,16-16,16h16c8.836,0,16-7.164,16-16v-56
	C356,375.164,348.836,368,340,368z"/>
<path style="fill:#F5F5F5;" d="M232.848,128.56c-4.16,0-7.24-1.78-8.236-4.764c-1.464-4.4,2.26-9.188,8.856-11.384
	c1.908-0.636,3.868-0.972,5.68-0.972c4.16,0,7.24,1.78,8.236,4.764c1.464,4.4-2.26,9.188-8.856,11.384
	C236.624,128.224,234.66,128.56,232.848,128.56z"/>
<ellipse transform="matrix(-0.9487 0.3162 -0.3162 -0.9487 497.8035 159.286)" style="fill:#263740;" cx="235.979" cy="120.03" rx="8" ry="4"/>
</svg>